<svg xmlns="http://www.w3.org/2000/svg" viewBox="0 0 24 24" shape-rendering="crispEdges"><path d="M1 0h22v1h1v22h-1v1H1v-1H0V1h1z" fill="#e0ad39"/><rect x="1" y="1" width="22" height="22" fill="#7a5414"/><rect x="2" y="2" width="20" height="20" fill="#231c3a"/><rect x="2" y="2" width="20" height="1" fill="#332a52"/><rect x="7" y="5" width="10" height="1" fill="#0e0a18"/><rect x="6" y="6" width="1" height="1" fill="#0e0a18"/><rect x="7" y="6" width="10" height="1" fill="#b8743f"/><rect x="17" y="6" width="1" height="1" fill="#0e0a18"/><rect x="5" y="7" width="1" height="1" fill="#0e0a18"/><rect x="6" y="7" width="12" height="1" fill="#b8743f"/><rect x="18" y="7" width="1" height="1" fill="#0e0a18"/><rect x="4" y="8" width="1" height="1" fill="#0e0a18"/><rect x="5" y="8" width="2" height="1" fill="#b8743f"/><rect x="7" y="8" width="1" height="1" fill="#7a4a26"/><rect x="8" y="8" width="8" height="1" fill="#b8743f"/><rect x="16" y="8" width="1" height="1" fill="#7a4a26"/><rect x="17" y="8" width="2" height="1" fill="#b8743f"/><rect x="19" y="8" width="1" height="1" fill="#0e0a18"/><rect x="4" y="9" width="1" height="1" fill="#0e0a18"/><rect x="5" y="9" width="14" height="1" fill="#f2c14e"/><rect x="19" y="9" width="1" height="1" fill="#0e0a18"/><rect x="4" y="10" width="1" height="1" fill="#0e0a18"/><rect x="5" y="10" width="2" height="1" fill="#b8743f"/><rect x="7" y="10" width="1" height="1" fill="#7a4a26"/><rect x="8" y="10" width="3" height="1" fill="#b8743f"/><rect x="11" y="10" width="2" height="1" fill="#f2c14e"/><rect x="13" y="10" width="3" height="1" fill="#b8743f"/><rect x="16" y="10" width="1" height="1" fill="#7a4a26"/><rect x="17" y="10" width="2" height="1" fill="#b8743f"/><rect x="19" y="10" width="1" height="1" fill="#0e0a18"/><rect x="4" y="11" width="1" height="1" fill="#0e0a18"/><rect x="5" y="11" width="2" height="1" fill="#b8743f"/><rect x="7" y="11" width="1" height="1" fill="#7a4a26"/><rect x="8" y="11" width="2" height="1" fill="#b8743f"/><rect x="10" y="11" width="1" height="1" fill="#f2c14e"/><rect x="11" y="11" width="2" height="1" fill="#b07a1e"/><rect x="13" y="11" width="1" height="1" fill="#f2c14e"/><rect x="14" y="11" width="2" height="1" fill="#b8743f"/><rect x="16" y="11" width="1" height="1" fill="#7a4a26"/><rect x="17" y="11" width="2" height="1" fill="#b8743f"/><rect x="19" y="11" width="1" height="1" fill="#0e0a18"/><rect x="4" y="12" width="1" height="1" fill="#0e0a18"/><rect x="5" y="12" width="2" height="1" fill="#b8743f"/><rect x="7" y="12" width="1" height="1" fill="#7a4a26"/><rect x="8" y="12" width="3" height="1" fill="#b8743f"/><rect x="11" y="12" width="2" height="1" fill="#f2c14e"/><rect x="13" y="12" width="3" height="1" fill="#b8743f"/><rect x="16" y="12" width="1" height="1" fill="#7a4a26"/><rect x="17" y="12" width="2" height="1" fill="#b8743f"/><rect x="19" y="12" width="1" height="1" fill="#0e0a18"/><rect x="4" y="13" width="1" height="1" fill="#0e0a18"/><rect x="5" y="13" width="2" height="1" fill="#b8743f"/><rect x="7" y="13" width="1" height="1" fill="#7a4a26"/><rect x="8" y="13" width="8" height="1" fill="#b8743f"/><rect x="16" y="13" width="1" height="1" fill="#7a4a26"/><rect x="17" y="13" width="2" height="1" fill="#b8743f"/><rect x="19" y="13" width="1" height="1" fill="#0e0a18"/><rect x="4" y="14" width="1" height="1" fill="#0e0a18"/><rect x="5" y="14" width="2" height="1" fill="#b8743f"/><rect x="7" y="14" width="1" height="1" fill="#7a4a26"/><rect x="8" y="14" width="8" height="1" fill="#b8743f"/><rect x="16" y="14" width="1" height="1" fill="#7a4a26"/><rect x="17" y="14" width="2" height="1" fill="#b8743f"/><rect x="19" y="14" width="1" height="1" fill="#0e0a18"/><rect x="4" y="15" width="1" height="1" fill="#0e0a18"/><rect x="5" y="15" width="14" height="1" fill="#f2c14e"/><rect x="19" y="15" width="1" height="1" fill="#0e0a18"/><rect x="4" y="16" width="1" height="1" fill="#0e0a18"/><rect x="5" y="16" width="14" height="1" fill="#7a4a26"/><rect x="19" y="16" width="1" height="1" fill="#0e0a18"/><rect x="5" y="17" width="14" height="1" fill="#0e0a18"/></svg>
