<svg xmlns="http://www.w3.org/2000/svg" viewBox="0 0 24 24" shape-rendering="crispEdges"><path d="M1 0h22v1h1v22h-1v1H1v-1H0V1h1z" fill="#e0ad39"/><rect x="1" y="1" width="22" height="22" fill="#7a5414"/><rect x="2" y="2" width="20" height="20" fill="#231c3a"/><rect x="2" y="2" width="20" height="1" fill="#332a52"/><rect x="9" y="4" width="6" height="1" fill="#0e0a18"/><rect x="7" y="5" width="2" height="1" fill="#0e0a18"/><rect x="9" y="5" width="6" height="1" fill="#e8505a"/><rect x="15" y="5" width="2" height="1" fill="#0e0a18"/><rect x="6" y="6" width="1" height="1" fill="#0e0a18"/><rect x="7" y="6" width="2" height="1" fill="#e8505a"/><rect x="9" y="6" width="6" height="1" fill="#f4eee0"/><rect x="15" y="6" width="2" height="1" fill="#e8505a"/><rect x="17" y="6" width="1" height="1" fill="#0e0a18"/><rect x="5" y="7" width="1" height="1" fill="#0e0a18"/><rect x="6" y="7" width="1" height="1" fill="#e8505a"/><rect x="7" y="7" width="10" height="1" fill="#f4eee0"/><rect x="17" y="7" width="1" height="1" fill="#e8505a"/><rect x="18" y="7" width="1" height="1" fill="#0e0a18"/><rect x="5" y="8" width="1" height="1" fill="#0e0a18"/><rect x="6" y="8" width="1" height="1" fill="#e8505a"/><rect x="7" y="8" width="2" height="1" fill="#f4eee0"/><rect x="9" y="8" width="6" height="1" fill="#e8505a"/><rect x="15" y="8" width="2" height="1" fill="#f4eee0"/><rect x="17" y="8" width="1" height="1" fill="#e8505a"/><rect x="18" y="8" width="1" height="1" fill="#0e0a18"/><rect x="4" y="9" width="1" height="1" fill="#0e0a18"/><rect x="5" y="9" width="1" height="1" fill="#e8505a"/><rect x="6" y="9" width="2" height="1" fill="#f4eee0"/><rect x="8" y="9" width="2" height="1" fill="#e8505a"/><rect x="10" y="9" width="4" height="1" fill="#f4eee0"/><rect x="14" y="9" width="2" height="1" fill="#e8505a"/><rect x="16" y="9" width="2" height="1" fill="#f4eee0"/><rect x="18" y="9" width="1" height="1" fill="#e8505a"/><rect x="19" y="9" width="1" height="1" fill="#0e0a18"/><rect x="4" y="10" width="1" height="1" fill="#0e0a18"/><rect x="5" y="10" width="1" height="1" fill="#e8505a"/><rect x="6" y="10" width="2" height="1" fill="#f4eee0"/><rect x="8" y="10" width="1" height="1" fill="#e8505a"/><rect x="9" y="10" width="2" height="1" fill="#f4eee0"/><rect x="11" y="10" width="2" height="1" fill="#e8505a"/><rect x="13" y="10" width="2" height="1" fill="#f4eee0"/><rect x="15" y="10" width="1" height="1" fill="#e8505a"/><rect x="16" y="10" width="2" height="1" fill="#f4eee0"/><rect x="18" y="10" width="1" height="1" fill="#e8505a"/><rect x="19" y="10" width="1" height="1" fill="#0e0a18"/><rect x="4" y="11" width="1" height="1" fill="#0e0a18"/><rect x="5" y="11" width="1" height="1" fill="#e8505a"/><rect x="6" y="11" width="2" height="1" fill="#f4eee0"/><rect x="8" y="11" width="1" height="1" fill="#e8505a"/><rect x="9" y="11" width="1" height="1" fill="#f4eee0"/><rect x="10" y="11" width="4" height="1" fill="#e8505a"/><rect x="14" y="11" width="1" height="1" fill="#f4eee0"/><rect x="15" y="11" width="1" height="1" fill="#e8505a"/><rect x="16" y="11" width="2" height="1" fill="#f4eee0"/><rect x="18" y="11" width="1" height="1" fill="#e8505a"/><rect x="19" y="11" width="1" height="1" fill="#0e0a18"/><rect x="4" y="12" width="1" height="1" fill="#0e0a18"/><rect x="5" y="12" width="1" height="1" fill="#e8505a"/><rect x="6" y="12" width="2" height="1" fill="#f4eee0"/><rect x="8" y="12" width="1" height="1" fill="#e8505a"/><rect x="9" y="12" width="1" height="1" fill="#f4eee0"/><rect x="10" y="12" width="4" height="1" fill="#e8505a"/><rect x="14" y="12" width="1" height="1" fill="#f4eee0"/><rect x="15" y="12" width="1" height="1" fill="#e8505a"/><rect x="16" y="12" width="2" height="1" fill="#f4eee0"/><rect x="18" y="12" width="1" height="1" fill="#e8505a"/><rect x="19" y="12" width="1" height="1" fill="#0e0a18"/><rect x="4" y="13" width="1" height="1" fill="#0e0a18"/><rect x="5" y="13" width="1" height="1" fill="#e8505a"/><rect x="6" y="13" width="2" height="1" fill="#f4eee0"/><rect x="8" y="13" width="1" height="1" fill="#e8505a"/><rect x="9" y="13" width="2" height="1" fill="#f4eee0"/><rect x="11" y="13" width="2" height="1" fill="#e8505a"/><rect x="13" y="13" width="2" height="1" fill="#f4eee0"/><rect x="15" y="13" width="1" height="1" fill="#e8505a"/><rect x="16" y="13" width="2" height="1" fill="#f4eee0"/><rect x="18" y="13" width="1" height="1" fill="#e8505a"/><rect x="19" y="13" width="1" height="1" fill="#0e0a18"/><rect x="4" y="14" width="1" height="1" fill="#0e0a18"/><rect x="5" y="14" width="1" height="1" fill="#e8505a"/><rect x="6" y="14" width="2" height="1" fill="#f4eee0"/><rect x="8" y="14" width="2" height="1" fill="#e8505a"/><rect x="10" y="14" width="4" height="1" fill="#f4eee0"/><rect x="14" y="14" width="2" height="1" fill="#e8505a"/><rect x="16" y="14" width="2" height="1" fill="#f4eee0"/><rect x="18" y="14" width="1" height="1" fill="#e8505a"/><rect x="19" y="14" width="1" height="1" fill="#0e0a18"/><rect x="5" y="15" width="1" height="1" fill="#0e0a18"/><rect x="6" y="15" width="1" height="1" fill="#e8505a"/><rect x="7" y="15" width="2" height="1" fill="#f4eee0"/><rect x="9" y="15" width="6" height="1" fill="#e8505a"/><rect x="15" y="15" width="2" height="1" fill="#f4eee0"/><rect x="17" y="15" width="1" height="1" fill="#e8505a"/><rect x="18" y="15" width="1" height="1" fill="#0e0a18"/><rect x="5" y="16" width="1" height="1" fill="#0e0a18"/><rect x="6" y="16" width="1" height="1" fill="#e8505a"/><rect x="7" y="16" width="10" height="1" fill="#f4eee0"/><rect x="17" y="16" width="1" height="1" fill="#e8505a"/><rect x="18" y="16" width="1" height="1" fill="#0e0a18"/><rect x="6" y="17" width="1" height="1" fill="#0e0a18"/><rect x="7" y="17" width="2" height="1" fill="#e8505a"/><rect x="9" y="17" width="6" height="1" fill="#f4eee0"/><rect x="15" y="17" width="2" height="1" fill="#e8505a"/><rect x="17" y="17" width="1" height="1" fill="#0e0a18"/><rect x="7" y="18" width="2" height="1" fill="#0e0a18"/><rect x="9" y="18" width="6" height="1" fill="#e8505a"/><rect x="15" y="18" width="2" height="1" fill="#0e0a18"/><rect x="9" y="19" width="6" height="1" fill="#0e0a18"/></svg>
